<?xml version="1.0" standalone="no"?>
<!DOCTYPE svg PUBLIC "-//W3C//DTD SVG 20010904//EN"
 "http://www.w3.org/TR/2001/REC-SVG-20010904/DTD/svg10.dtd">
<svg version="1.0" xmlns="http://www.w3.org/2000/svg"
 width="648.000000pt" height="1152.000000pt" viewBox="0 0 648.000000 1152.000000"
 preserveAspectRatio="xMidYMid meet">

<g transform="translate(0.000000,1152.000000) scale(0.100000,-0.100000)"
fill="#000000" stroke="none">
<path d="M2740 6670 l0 -140 65 0 65 0 0 70 0 71 73 -3 72 -3 0 -100 0 -100
65 0 65 0 0 170 0 170 -202 3 -203 2 0 -140z"/>
<path d="M3230 6635 l0 -175 65 0 65 0 0 105 0 105 75 0 75 0 0 -70 0 -70 65
0 65 0 0 140 0 140 -205 0 -205 0 0 -175z"/>
<path d="M2740 6105 l0 -275 205 0 205 0 0 170 0 170 -71 0 -70 0 2 -97 2 -98
-72 -3 -71 -3 0 141 0 140 320 0 320 0 0 -140 0 -140 -75 0 -75 0 0 100 0 100
-65 0 -65 0 0 -170 0 -170 205 0 205 0 0 275 0 275 -450 0 -450 0 0 -275z"/>
<path d="M4580 5755 c-15 -18 -5 -35 20 -35 10 0 22 5 25 10 7 11 -12 40 -25
40 -4 0 -13 -7 -20 -15z"/>
<path d="M4673 5759 c-16 -16 -5 -39 18 -39 24 0 37 29 18 41 -18 11 -23 11
-36 -2z"/>
<path d="M1467 5693 c-3 -5 -24 -53 -47 -108 -54 -126 -99 -218 -114 -227 -6
-4 8 -8 32 -8 24 0 41 4 37 9 -3 5 2 28 11 50 l16 41 67 0 c63 0 69 -2 79 -25
7 -14 12 -37 12 -50 0 -23 4 -25 42 -25 38 0 40 1 25 18 -8 9 -45 88 -82 175
-37 86 -68 157 -70 157 -2 0 -6 -3 -8 -7z m32 -144 c11 -29 21 -56 21 -60 0
-5 -22 -9 -50 -9 -27 0 -50 3 -50 7 0 15 44 113 51 113 3 0 16 -23 28 -51z"/>
<path d="M3338 5623 c-20 -43 -50 -113 -68 -155 -18 -42 -41 -86 -51 -97 l-20
-21 48 0 c31 0 43 3 34 9 -11 7 -11 15 5 47 19 39 19 39 85 42 l66 3 17 -41
c9 -23 14 -46 11 -51 -4 -5 12 -9 35 -9 l41 0 -19 28 c-10 15 -42 83 -71 152
-82 194 -71 185 -113 93z m61 -74 c11 -29 21 -56 21 -60 0 -5 -22 -9 -50 -9
-27 0 -50 2 -50 4 0 14 44 116 50 116 4 0 17 -23 29 -51z"/>
<path d="M4252 5689 c-56 -11 -93 -33 -120 -74 -73 -105 -16 -238 113 -265 33
-7 80 -9 111 -5 l54 6 0 69 c0 55 4 71 18 79 13 8 2 10 -43 10 -33 -1 -52 -3
-43 -6 21 -5 31 -37 26 -84 -3 -33 -4 -34 -55 -37 -34 -2 -65 3 -88 14 -98 46
-101 201 -4 247 62 29 139 27 169 -5 l20 -22 0 36 c0 34 -1 35 -46 42 -53 7
-54 7 -112 -5z"/>
<path d="M1698 5683 c9 -3 12 -46 12 -163 0 -117 -3 -160 -12 -163 -7 -3 22
-6 65 -6 111 -1 157 27 157 94 0 26 -33 67 -61 77 -10 4 -7 11 14 27 38 31 38
91 1 120 -22 18 -40 21 -108 20 -44 0 -75 -3 -68 -6z m145 -45 c22 -26 22 -40
-4 -72 -16 -21 -28 -26 -53 -24 -30 3 -31 5 -31 48 0 64 11 83 43 75 15 -3 35
-15 45 -27z m12 -150 c45 -47 6 -112 -63 -106 l-37 3 0 55 c-1 30 1 59 3 64 6
12 82 0 97 -16z"/>
<path d="M1960 5681 c12 -8 16 -39 18 -141 2 -73 -1 -144 -7 -160 l-10 -30 85
0 c157 0 227 56 227 180 0 67 -11 90 -60 127 -34 26 -43 28 -152 31 -81 2
-111 0 -101 -7z m200 -39 c67 -33 90 -129 47 -193 -30 -46 -81 -70 -137 -67
l-45 3 -3 138 -3 137 53 0 c30 0 68 -8 88 -18z"/>
<path d="M2314 5674 c13 -12 16 -39 16 -127 0 -150 19 -184 112 -201 52 -9
109 8 143 44 29 31 30 34 33 153 2 67 8 128 14 135 8 9 0 12 -36 12 -44 0 -46
-1 -31 -17 14 -13 16 -34 13 -129 -4 -135 -15 -154 -95 -161 -42 -5 -54 -2
-79 20 -28 25 -29 27 -32 140 -3 96 -1 117 13 130 15 16 13 17 -35 17 -47 0
-50 -1 -36 -16z"/>
<path d="M2710 5680 c12 -8 15 -37 15 -160 0 -123 -3 -152 -15 -160 -10 -7 23
-10 98 -10 l112 0 0 37 c0 37 0 37 -16 15 -13 -19 -24 -22 -75 -22 l-59 0 0
143 c0 98 4 147 12 155 9 9 1 12 -37 12 -36 0 -46 -3 -35 -10z"/>
<path d="M2963 5679 c15 -9 17 -28 17 -157 0 -102 -4 -152 -12 -160 -9 -9 12
-12 95 -12 l107 0 0 26 c0 22 -3 24 -14 15 -9 -7 -38 -11 -73 -9 l-58 3 1 143
c0 113 4 146 15 153 9 6 -5 9 -41 9 -42 -1 -51 -3 -37 -11z"/>
<path d="M3598 5678 c8 -8 12 -58 12 -158 0 -100 -4 -150 -12 -158 -9 -9 -1
-12 38 -12 27 0 44 4 38 8 -7 4 -13 39 -15 77 l-4 70 98 3 97 3 0 -75 c0 -50
-4 -76 -12 -79 -7 -3 9 -6 35 -6 44 -1 47 0 37 18 -15 28 -13 294 2 309 9 9 1
12 -37 11 -28 0 -44 -3 -37 -6 8 -3 12 -28 12 -74 l0 -70 -97 3 -97 3 3 65 c1
36 8 68 14 72 7 4 -10 8 -37 8 -39 0 -47 -3 -38 -12z"/>
<path d="M4478 5681 c10 -6 16 -47 21 -139 6 -120 9 -134 31 -157 28 -30 90
-49 133 -40 107 21 120 43 125 205 3 77 9 128 16 132 6 4 -11 8 -39 8 -32 0
-45 -3 -36 -9 18 -12 27 -172 12 -228 -21 -76 -116 -100 -172 -44 -29 29 -29
31 -29 145 0 99 2 116 18 125 13 8 4 10 -38 11 -34 0 -50 -4 -42 -9z"/>
<path d="M4880 5680 c12 -7 16 -37 18 -140 2 -73 -1 -144 -7 -160 l-10 -30
105 0 104 0 0 33 c-1 26 -2 29 -11 15 -8 -14 -24 -18 -74 -18 l-65 0 0 145 c0
127 2 145 18 154 13 8 4 10 -38 11 -38 0 -50 -3 -40 -10z"/>
<path d="M1730 5235 c0 -8 7 -15 15 -15 8 0 15 7 15 15 0 8 -7 15 -15 15 -8 0
-15 -7 -15 -15z"/>
<path d="M1790 5235 c0 -8 7 -15 15 -15 8 0 15 7 15 15 0 8 -7 15 -15 15 -8 0
-15 -7 -15 -15z"/>
<path d="M2370 5235 c0 -9 5 -15 11 -13 6 2 11 8 11 13 0 5 -5 11 -11 13 -6 2
-11 -4 -11 -13z"/>
<path d="M3670 5235 c0 -8 7 -15 15 -15 8 0 15 7 15 15 0 8 -7 15 -15 15 -8 0
-15 -7 -15 -15z"/>
<path d="M4672 5238 c6 -18 28 -21 28 -4 0 9 -7 16 -16 16 -9 0 -14 -5 -12
-12z"/>
<path d="M3158 5203 c-16 -4 -18 -18 -18 -119 0 -102 2 -114 18 -114 14 0 16
8 14 50 -3 31 0 50 7 50 6 0 28 -22 48 -49 21 -28 46 -50 56 -50 15 -1 11 8
-18 45 -19 26 -35 50 -35 53 0 4 9 14 20 24 38 32 17 107 -30 107 -10 0 -24 2
-32 4 -7 2 -21 2 -30 -1z m81 -45 c12 -31 -9 -62 -43 -66 -25 -3 -26 -1 -26
42 0 45 1 46 30 46 23 0 33 -6 39 -22z"/>
<path d="M3460 5203 c-63 -23 -65 -69 -5 -119 54 -43 61 -80 18 -90 -14 -4
-34 -2 -44 5 -24 14 -29 14 -29 -3 0 -29 72 -36 108 -10 37 26 27 71 -25 109
-33 23 -42 36 -40 55 2 22 7 25 40 25 23 0 37 5 37 13 0 6 -4 12 -9 12 -5 0
-15 2 -23 4 -7 3 -20 2 -28 -1z"/>
<path d="M4444 5198 c-54 -26 -47 -78 16 -120 38 -26 48 -51 30 -73 -14 -17
-56 -20 -65 -5 -9 15 -25 12 -25 -4 0 -29 72 -36 108 -10 14 10 22 25 22 45 0
24 -9 36 -45 61 -37 26 -45 38 -43 58 2 19 10 26 32 28 16 2 32 -2 37 -10 6
-9 9 -7 9 8 0 32 -35 42 -76 22z"/>
<path d="M1670 5138 c0 -80 15 -133 43 -153 39 -28 126 -13 143 24 4 9 10 55
13 104 5 78 4 87 -11 87 -16 0 -18 -11 -18 -85 0 -72 -3 -88 -20 -105 -25 -25
-61 -26 -91 -1 -22 18 -24 26 -22 105 1 79 0 86 -18 86 -17 0 -19 -8 -19 -62z"/>
<path d="M2010 5100 c0 -69 -4 -110 -12 -118 -9 -9 -5 -12 20 -12 29 0 32 2
22 19 -9 18 -15 151 -6 151 2 0 40 -37 85 -82 l81 -83 0 90 c0 50 3 100 6 113
5 17 2 22 -12 22 -17 0 -19 -8 -16 -87 l3 -88 -85 90 -85 90 -1 -105z"/>
<path d="M2365 5085 c0 -108 1 -115 20 -115 19 0 20 6 17 115 -3 100 -5 115
-20 115 -15 0 -17 -14 -17 -115z"/>
<path d="M2540 5196 c0 -8 92 -212 100 -220 4 -4 11 3 15 15 4 13 27 66 51
117 35 76 40 92 26 92 -12 0 -27 -26 -51 -85 -19 -47 -37 -82 -41 -78 -12 14
-60 134 -60 149 0 8 -9 14 -20 14 -11 0 -20 -2 -20 -4z"/>
<path d="M2877 5104 c1 -54 -2 -105 -8 -116 -9 -17 -5 -18 61 -18 51 0 70 4
70 13 0 9 -15 13 -47 13 l-48 -1 -3 44 -3 43 45 -4 c36 -2 46 0 46 12 0 11
-11 15 -42 15 -43 0 -43 0 -46 39 l-3 38 50 -3 c36 -3 51 0 51 9 0 8 -19 12
-62 12 l-63 0 2 -96z"/>
<path d="M3668 5100 c3 -69 0 -105 -8 -115 -10 -13 -8 -15 16 -15 l29 0 0 115
c0 108 -1 115 -20 115 -19 0 -20 -5 -17 -100z"/>
<path d="M3820 5187 c0 -8 14 -11 45 -9 l45 4 0 -87 c0 -47 -5 -95 -10 -106
-10 -17 -7 -19 20 -19 27 0 30 2 20 19 -5 11 -10 59 -10 106 l0 87 45 -4 c31
-2 45 1 45 9 0 10 -26 13 -100 13 -74 0 -100 -3 -100 -13z"/>
<path d="M4145 5085 l0 -115 68 0 c62 0 67 2 67 21 0 18 -3 19 -14 10 -8 -7
-30 -11 -48 -9 -31 3 -33 5 -36 46 l-3 42 40 0 c27 0 41 5 41 13 0 9 -12 11
-40 9 l-40 -4 0 42 0 42 45 -4 c31 -2 45 1 45 9 0 9 -19 13 -62 13 l-63 0 0
-115z"/>
<path d="M4668 5085 c-3 -109 -2 -115 17 -115 19 0 20 7 20 115 0 101 -2 115
-17 115 -15 0 -17 -15 -20 -115z"/>
</g>
</svg>
